<?xml version="1.0" encoding="utf-8"?>
<!-- Generator: Adobe Illustrator 24.3.0, SVG Export Plug-In . SVG Version: 6.00 Build 0)  -->
<svg version="1.1" id="Layer_1" xmlns="http://www.w3.org/2000/svg" xmlns:xlink="http://www.w3.org/1999/xlink" x="0px" y="0px"
	 viewBox="0 0 16.7 16.7" style="enable-background:new 0 0 16.7 16.7;" xml:space="preserve">
<style type="text/css">
	.st0{fill:#838383;}
</style>
<path class="st0" d="M8.3,0C3.7,0,0,3.7,0,8.3s3.7,8.3,8.3,8.3s8.3-3.7,8.3-8.3v0C16.7,3.7,13,0,8.3,0z M9.2,12.9H7.4v-1.8h1.8V12.9
	z M10.9,7.8c-0.3,0.3-0.6,0.6-0.9,0.8L9.6,8.9C9.4,9.1,9.2,9.3,9.1,9.6c-0.1,0.2-0.1,0.5-0.1,0.7H7.4c0-0.5,0.1-1,0.2-1.4
	C7.8,8.5,8.1,8.2,8.4,8l0.4-0.3C9,7.5,9.1,7.4,9.2,7.3C9.4,7,9.5,6.8,9.5,6.5c0-0.3-0.1-0.6-0.3-0.8c-0.2-0.3-0.6-0.4-1-0.4
	c-0.4,0-0.8,0.1-1,0.5C7,6,6.9,6.4,6.9,6.7H5.1c0-1,0.4-1.9,1.2-2.5c0.5-0.3,1.1-0.5,1.8-0.5c0.8,0,1.6,0.2,2.3,0.7
	c0.6,0.5,1,1.2,0.9,2C11.3,6.9,11.2,7.4,10.9,7.8L10.9,7.8z"/>
</svg>
