<?xml version="1.0" encoding="utf-8"?>
<!-- Generator: Adobe Illustrator 23.0.1, SVG Export Plug-In . SVG Version: 6.00 Build 0)  -->
<svg version="1.1" id="Layer_1" xmlns="http://www.w3.org/2000/svg" xmlns:xlink="http://www.w3.org/1999/xlink" x="0px" y="0px"
	 viewBox="0 0 55 55" style="enable-background:new 0 0 55 55;" xml:space="preserve">
<style type="text/css">
	.st0{fill:#E7534F;}
</style>
<g>
	<path class="st0" d="M15.9,28.1c0-1.5-1.1-2.3-2.8-2.3c-0.8,0-1.3,0.1-1.5,0.1v4.8c0.3,0.1,0.7,0.1,1.2,0.1
		C14.8,30.7,15.9,29.7,15.9,28.1z"/>
	<path class="st0" d="M27.2,25.8c-0.8,0-1.4,0.1-1.7,0.1v10.5c0.3,0.1,0.8,0.1,1.3,0.1c3.3,0,5.5-1.8,5.5-5.7
		C32.3,27.6,30.4,25.8,27.2,25.8z"/>
	<path class="st0" d="M48.7,19.6h-1.4v-6.3v-0.1c0-0.3-0.1-0.5-0.3-0.7L36.5,0.3l0,0c-0.1-0.1-0.1-0.1-0.2-0.2c0,0,0,0-0.1,0
		S36.1,0,36,0c0,0,0,0-0.1,0s-0.2,0-0.3,0h-26C8.4-0.1,7.5,0.9,7.5,2v17.6H6.2c-1.7,0-3.1,1.4-3.1,3.1v16.1c0,1.7,1.4,3,3.1,3h1.4
		v11c0,1.2,1,2.1,2.1,2.1h35.6c1.2,0,2.1-1,2.1-2.1v-11h1.4c1.7,0,3.1-1.4,3.1-3.1v-16C51.8,21,50.5,19.6,48.7,19.6z M9.6,2.1h25v11
		c0,0.6,0.5,1.1,1.1,1.1h9.6v5.4H9.6V2.1z M36.1,30.8c0,3.1-1.2,5.2-2.6,6.5c-1.7,1.4-4.3,2-7.4,2c-1.9,0-3.2-0.1-4.1-0.2V23.3
		c1.4-0.2,3.1-0.3,5-0.3c3,0,5.1,0.6,6.6,1.8C35.1,25.9,36.1,28,36.1,30.8z M8,39.2V23.3c1.2-0.2,2.7-0.3,5-0.3s3.8,0.4,5,1.3
		c1.1,0.8,1.8,2.1,1.8,3.7s-0.5,2.9-1.5,3.8C17,33,15.2,33.5,13,33.5c-0.5,0-0.9,0-1.3-0.1v5.8H8L8,39.2z M45.3,52.2H9.6V41.8h35.6
		L45.3,52.2L45.3,52.2z M48.4,26.1h-6.2v3.7H48v2.9h-5.8v6.4h-3.7v-16h9.8L48.4,26.1L48.4,26.1z"/>
</g>
</svg>
