<?xml version="1.0" encoding="utf-8"?>
<!-- Generator: Adobe Illustrator 22.1.0, SVG Export Plug-In . SVG Version: 6.00 Build 0)  -->
<svg version="1.1" id="Layer_1" xmlns="http://www.w3.org/2000/svg" xmlns:xlink="http://www.w3.org/1999/xlink" x="0px" y="0px"
	 viewBox="0 0 19 19" style="enable-background:new 0 0 19 19;" xml:space="preserve">
<style type="text/css">
	.st0{fill:#838383;}
</style>
<path id="Podcast_Icon" class="st0" d="M9.5,0C4.3,0,0,4.3,0,9.5S4.3,19,9.5,19S19,14.7,19,9.5S14.7,0,9.5,0z M7.6,5.2
	c0-0.9,0.8-1.7,1.7-1.7h0.4c0.9,0,1.7,0.8,1.7,1.7v3.4c0,0.9-0.8,1.7-1.7,1.7H9.3c-0.9,0-1.7-0.8-1.7-1.7V5.2z M7.6,15.4l0.2-0.4
	c0-0.1,0.1-0.1,0.2-0.1h2.9c0.1,0,0.2,0.1,0.2,0.1l0.2,0.4H7.6z M9.2,14.3v-2.2h0.5v2.2L9.2,14.3z M12.5,9c-0.1,1.5-1.3,2.6-2.8,2.6
	H9.3c-1.5,0-2.7-1.1-2.8-2.6V8.9H7v0c0.1,1.2,1.1,2.1,2.3,2.1h0.4c1.2,0,2.2-0.9,2.3-2.1v0L12.5,9L12.5,9z"/>
</svg>
