<?xml version="1.0" encoding="utf-8"?>
<!-- Generator: Adobe Illustrator 22.1.0, SVG Export Plug-In . SVG Version: 6.00 Build 0)  -->
<svg version="1.1" id="Layer_1" xmlns="http://www.w3.org/2000/svg" xmlns:xlink="http://www.w3.org/1999/xlink" x="0px" y="0px"
	 viewBox="0 0 20 20" style="enable-background:new 0 0 20 20;" xml:space="preserve">
<style type="text/css">
	.st0{fill:#FFFFFF;}
</style>
<path id="Group_179" transform="translate(0)" class="st0" d="M5,1.2h10v2.5h1.2V1.2C16.2,0.6,15.7,0,15,0H5C4.3,0,3.8,0.6,3.8,1.2
	v2.5H5V1.2z M18.8,5H1.2C0.6,5,0,5.6,0,6.2v6.2c0,0.7,0.6,1.2,1.2,1.2c0,0,0,0,0,0h2.5v5C3.7,19.4,4.3,20,5,20c0,0,0,0,0,0h10
	c0.7,0,1.2-0.6,1.2-1.2c0,0,0,0,0,0v-5h2.5c0.7,0,1.2-0.6,1.2-1.2c0,0,0,0,0,0V6.2C20,5.6,19.4,5,18.8,5C18.8,5,18.8,5,18.8,5z
	 M15,18.7H5V10h10V18.7z M17.5,8.7c-0.7,0-1.2-0.6-1.2-1.2s0.6-1.2,1.2-1.2s1.2,0.6,1.2,1.2C18.8,8.2,18.2,8.7,17.5,8.7
	C17.5,8.7,17.5,8.7,17.5,8.7z M6.2,11.2h5v1.2h-5V11.2z M6.2,13.7h7.5V15H6.2V13.7z M6.2,16.2h7.5v1.2H6.2V16.2z"/>
</svg>
